# xmcd
# Track frame offsets:
# 150
# 15390
# 38507
# 57835
# 78547
# 98580
# 123148
# 138631
# 154862
# 178931
# 199318
#
# Disc length: 2948 seconds
# Revision: 0
# Processed by: cddbd v1.5.2PL0 Copyright (c) Steve Scherf et al.
# Submitted via: VisiTrax 2.11.1.266 - For more info visit www.synapsa.com
#
DISCID=890b820b
DTITLE=Unicorn - Too Many Crooks
DYEAR=1976
DGENRE=Country Rock
TTITLE0=Weekend
TTITLE1=Ferry Boat
TTITLE2=He's Got Pride
TTITLE3=Keep On Going
TTITLE4=Too Many Crooks
TTITLE5=Bullseye Bill
TTITLE6=Disco Dancer
TTITLE7=Easy
TTITLE8=No Way Out Of Here
TTITLE9=In The Mood
TTITLE10=Nothing I Wouldn't Do (Prev. unreleased Bonus Track)
EXTD=Tracks 1-10 Original Recording Released In UK by Harvest Records:197
EXTD=6\nThis re-issue, American import, Renaissance Records and Its about Mus
EXTD=ic.com: 2009\nProduced by Dave Gilmour
EXTT0=
EXTT1=
EXTT2=
EXTT3=
EXTT4=
EXTT5=
EXTT6=
EXTT7=
EXTT8=
EXTT9=
EXTT10=
PLAYORDER=
